<svg xmlns="http://www.w3.org/2000/svg" viewBox="0 0 129.01 106.43"><defs><style>.cls-1{isolation:isolate;}.cls-2{fill:#dcedf9;}.cls-3{fill:#0077eb;}.cls-4{fill:#0059d3;}.cls-5{fill:#008eff;}.cls-6{fill:#ffaa01;}.cls-7{fill:#f88800;}.cls-8{fill:#fdcc50;}.cls-9{fill:#f9af8b;}.cls-10{fill:#fff;}.cls-11{fill:#2e3052;}.cls-12{fill:#001030;}.cls-13{fill:#524e84;}.cls-14{fill:#1f2232;}.cls-15{mix-blend-mode:screen;}.cls-16{fill:#fc8664;}.cls-17{fill:#fd664d;}.cls-18{fill:#000b29;}</style></defs><title>contact</title><g class="cls-1"><g id="Layer_2" data-name="Layer 2"><g id="OBJECTS"><path class="cls-2" d="M114.92,101.61c-6.43-4.88-17.42-17-2.94-36,17.9-23.53-3.54-33.18-24.09-32.17-16.53.81-35.14-20-53.7-16.26C9.54,22.08,25.54,43.3,8.84,54.73-5.41,64.47.71,94.18,19.25,101.61Z"/><path class="cls-2" d="M126.52,58.46c-.1-3.49-3.35-4.84-5.52-2.32a10.89,10.89,0,0,0-2.65,6.31c-.5,6.22,4.94,4.42,7,1.09A9.51,9.51,0,0,0,126.52,58.46Z"/><path class="cls-2" d="M66.64,15.92c-3.43-.65-5.45,2.24-3.44,4.9a10.89,10.89,0,0,0,5.59,3.94c6,1.81,5.37-3.89,2.55-6.58A9.51,9.51,0,0,0,66.64,15.92Z"/><path class="cls-2" d="M10,47.88c1.37-3.21-1-5.8-4-4.42A10.89,10.89,0,0,0,.87,48.08C-2.18,53.52,3.51,54.16,6.75,52A9.51,9.51,0,0,0,10,47.88Z"/><ellipse class="cls-2" cx="64.61" cy="102.56" rx="58.78" ry="3.87"/><path class="cls-3" d="M121.8,70.81c-3.6,3.6.42,3.9-2.23,6.62-2.41,2.48-6,.07-5.72,6.11a3,3,0,0,1-2.26,2.81,5.15,5.15,0,0,1-5.74-1.46q-.16-.18-.31-.38a5.24,5.24,0,0,1-.63-5.13,5.78,5.78,0,0,1,3.61-3.59c4.5-1.39,2-7.35,5.81-7.61,4.59-.32,4.75-2,8-4.27C125.78,61.51,126.68,65.94,121.8,70.81Z"/><path class="cls-4" d="M120.19,68.85c-.1.1-8.44,8.71-14.33,16q-.16-.18-.31-.38c5.9-7.35,14.2-15.9,14.3-16a.24.24,0,0,1,.35.34Z"/><path class="cls-5" d="M122.73,82.82c-5.64,3.32-.74,5-4.9,7.52-3.79,2.31-7.44-1.84-9.09,5.77-.36,1.66-1.88,2.58-3.72,2.77a6.62,6.62,0,0,1-6.67-3.66c-.1-.19-.18-.38-.26-.58A6.74,6.74,0,0,1,98.94,88a7.44,7.44,0,0,1,5.65-3.31c6-.28,4.86-8.5,9.68-7.61,5.81,1.08,6.56-1,11.34-2.73C130.68,72.52,130.37,78.32,122.73,82.82Z"/><path class="cls-3" d="M121.35,79.86c-.16.1-13.32,8.12-23,15.36-.1-.19-.18-.38-.26-.58,9.71-7.24,22.79-15.22,22.95-15.31a.31.31,0,0,1,.32.53Z"/><path class="cls-3" d="M12.77,29.72c1.93,4.71-1.89,3.44-.5,7,1.27,3.21,5.47,2.36,2.92,7.85a3,3,0,0,0,1,3.46,5.15,5.15,0,0,0,5.86.86l.43-.24a5.24,5.24,0,0,0,2.56-4.49,5.78,5.78,0,0,0-1.95-4.71c-3.62-3,1-7.55-2.42-9.26-4.11-2.06-3.61-3.67-5.74-7C12.68,19.59,10.15,23.34,12.77,29.72Z"/><path class="cls-4" d="M15,28.52c.05.13,4.44,11.29,7,20.33l.43-.24c-2.62-9.05-7-20.14-7-20.27a.24.24,0,1,0-.45.18Z"/><path class="cls-5" d="M7.26,42c4.08,5.11-1.09,4.93,1.89,8.78,2.72,3.51,7.6.94,6.43,8.64-.26,1.68.83,3.08,2.49,3.91a6.62,6.62,0,0,0,7.54-1q.24-.21.45-.45a6.74,6.74,0,0,0,1.55-6.46,7.44,7.44,0,0,0-4.1-5.11C18,47.85,22,40.6,17.19,39.72c-5.81-1.06-5.78-3.24-9.61-6.6C3.51,29.55,1.73,35.08,7.26,42Z"/><path class="cls-3" d="M9.6,39.73c.11.15,9.54,12.34,16,22.57q.24-.21.45-.45c-6.48-10.24-15.85-22.35-16-22.5a.31.31,0,0,0-.49.38Z"/><path class="cls-5" d="M34.78,37.56c1.64-1.13,5.76,1.65,7.91,5l-1.91-5.35A11.72,11.72,0,0,0,37,35.12c-2.94-1-5.89-2.67-4.24-3.8s5.27,1.33,7.5,4.41l-2.45-6.87a7.73,7.73,0,0,0-2.14-1.13C33.8,27.07,31.94,26,33,25.33s3,.63,4.4,2.36l-.79-2.23A11.22,11.22,0,0,0,34.89,23C33,21.1,31.57,18.9,33,18.58s3.84,3.51,4.22,7l.41,1.15c-.32-2.52.59-5.56,1.85-5.67s.47,1.87-.55,3.55a7,7,0,0,0-1,2.82l1.93,5.41c-.49-4,.94-8.79,2.94-9s.74,3-.87,5.63a11.17,11.17,0,0,0-1.66,4.46l2.32,6.49c-.41-3.94,1-8.72,3-8.73,1.51,0,1.05,2.13-.76,5.14A12.83,12.83,0,0,0,43,41.7l1.09,3.06a1,1,0,0,1-.56.2l-.43-1.22A11.22,11.22,0,0,0,39,41.36C36.08,40.32,33.13,38.68,34.78,37.56Z"/><path class="cls-5" d="M20.32,82.89c-1.69,1.06-.78,5.94,1.46,9.26l-4.15-3.88A11.72,11.72,0,0,1,17.2,84c.21-3.11-.11-6.47-1.8-5.4s-.88,5.36,1.07,8.63l-5.33-5A7.73,7.73,0,0,1,11,79.78c.13-2-.07-4.07-1.14-3.4s-.61,3,.41,5L8.5,79.74A11.22,11.22,0,0,1,7,77.22c-1-2.51-2.49-4.69-3.36-3.48s1.69,4.92,4.72,6.64l.89.83C7,79.92,3.87,79.54,3.27,80.65s1.53,1.17,3.47.9a7,7,0,0,1,3,.16l4.2,3.92c-3.46-2-8.44-2.63-9.39-.87S7,86.63,10.07,86.21a11.17,11.17,0,0,1,4.75.25l5,4.71c-3.45-1.94-8.39-2.55-9.19-.75-.61,1.38,1.53,1.81,5,1.35a12.83,12.83,0,0,1,5.16.33l2.37,2.22a1,1,0,0,0,.41-.44L22.68,93a11.22,11.22,0,0,1-.56-4.69C22.33,85.18,22,81.83,20.32,82.89Z"/><rect class="cls-6" x="15.42" y="39.16" width="89.99" height="62.16"/><polygon class="cls-7" points="105.41 39.16 105.41 43.15 60.41 83.02 15.42 43.15 15.42 39.16 60.41 79.18 105.41 39.16"/><polygon class="cls-7" points="51.74 71.33 18.02 101.32 15.42 101.32 15.42 99.74 49.81 69.15 51.74 71.33"/><polygon class="cls-7" points="105.41 99.95 105.41 101.32 102.57 101.32 68.85 71.33 70.79 69.15 105.41 99.95"/><polygon class="cls-8" points="15.42 39.16 60.41 79.18 105.41 39.16 15.42 39.16"/><polygon class="cls-9" points="80.58 33.56 81.73 36.02 79.3 36.05 78.37 33.82 80.58 33.56"/><path class="cls-5" d="M81,35.86s.5-.67.89-.64,3.45,2.46,4.5,2.66.95,1.27.51,1.27H78.65a13.38,13.38,0,0,1,.06-3.23C79,35.18,80.15,36,81,35.86Z"/><path class="cls-10" d="M82.65,37.56a.15.15,0,0,1-.17-.21,2.26,2.26,0,0,1,.76-.8,1,1,0,0,1,1,0,.15.15,0,1,1-.17.24.72.72,0,0,0-.73,0,2,2,0,0,0-.64.68A.15.15,0,0,1,82.65,37.56Z"/><path class="cls-10" d="M82.22,37.15a.15.15,0,0,1-.17-.21,2.26,2.26,0,0,1,.76-.8,1,1,0,0,1,1,0,.15.15,0,1,1-.17.24.72.72,0,0,0-.73,0,2,2,0,0,0-.64.68A.15.15,0,0,1,82.22,37.15Z"/><path class="cls-10" d="M83.25,37.89a.15.15,0,0,1-.17-.21,2.26,2.26,0,0,1,.76-.8,1,1,0,0,1,1,0,.15.15,0,0,1-.17.24.72.72,0,0,0-.73,0,2,2,0,0,0-.64.68A.15.15,0,0,1,83.25,37.89Z"/><path class="cls-11" d="M81.27,34.36l-1.08.35-.6,0-1,.06c-1.36-1.07-5-4.3-5.73-6.21,0,0-4.71,11-11.23,11-.42,0,.69-5.45,1.76-6.59,0,0,6-11.19,9.9-10C75,23.5,76.77,26,81.27,34.36Z"/><path class="cls-12" d="M80.2,34.71l-.6,0c-4-3-5.85-5.59-6.7-7.23a.12.12,0,0,0-.11-.07.07.07,0,0,0-.06,0,25,25,0,0,1-5.8,8.68,11.47,11.47,0,0,1-3.05,2.16l-.07-.18L63.73,38a11.34,11.34,0,0,0,3-2.1,24.67,24.67,0,0,0,5.69-8.53.45.45,0,0,1,.4-.28.51.51,0,0,1,.47.28C74.1,29,76,31.61,80.2,34.71Z"/><path class="cls-13" d="M77.5,34.07a3.47,3.47,0,0,0,.75,1,11.27,11.27,0,0,0,3.42-.67l-.5-1.17A17.25,17.25,0,0,1,77.5,34.07Z"/><path class="cls-3" d="M80.51,18.37a31.94,31.94,0,0,1-8.11,2.28h0s-.55,0-.75,0a5.86,5.86,0,0,1-2.23-.54,10.6,10.6,0,0,1-2.3-1.82c-1.08-1-2.23-2.3-3-3.2-.61-.7-1-1.18-1-1.18A6.27,6.27,0,0,1,65.87,12a16.86,16.86,0,0,0,5.52,5.45l.55.27c.76-.12,2.81-.22,3.7-.28A35.72,35.72,0,0,0,80,16.85Z"/><path class="cls-9" d="M79.94,16.73A3.44,3.44,0,0,1,81,15.25c.62-.33,2.38-1.49,2.76-1.14s.3,2-1.28,3.4a3.16,3.16,0,0,1-2,.85Z"/><path class="cls-12" d="M83.89,15.17l-2.6,2.43a.38.38,0,0,1-.4.06l-1.6-.77a.18.18,0,0,1-.1-.1h0l-.08-.27.42-.16,4.1-1.56.22-.08.08.28v0h0A.16.16,0,0,1,83.89,15.17Z"/><path class="cls-14" d="M83.63,14.8l-4.1,1.56,2.32-2.17a.38.38,0,0,1,.39-.06Z"/><path class="cls-11" d="M80.81,17.39l-1.6-.77a.15.15,0,0,1,0-.27l2.6-2.43a.38.38,0,0,1,.39-.06l1.6.77a.15.15,0,0,1,0,.27l-2.6,2.43A.38.38,0,0,1,80.81,17.39Z"/><g class="cls-15"><path class="cls-11" d="M81,17l-1.24-.6a.15.15,0,0,1,0-.27l2-1.89a.38.38,0,0,1,.39-.06l1.24.6a.15.15,0,0,1,0,.27l-2,1.89A.38.38,0,0,1,81,17Z"/></g><polygon class="cls-14" points="83.95 15.02 83.94 15.02 83.94 15.01 83.95 15.02"/><path class="cls-9" d="M81,14.67s.37.06.41.38-.31.19-.53.12a.54.54,0,0,0-.45,0C80.3,15.32,80.31,14.57,81,14.67Z"/><path class="cls-9" d="M82.63,16.4a14.62,14.62,0,0,1,1-1.48c.3-.35.45.16.25.51S83.3,16.5,82.63,16.4Z"/><path class="cls-5" d="M55.51,33.65l-1.29-8.32-.08-.49v-.37l.29-11.78,3.27-1.1.18-.06.73-.25.58-.2,3.45.48.56.08.2,0,2.47.34c0,7.81-.73,9.5.72,15.85C67.32,30.24,64.65,38.73,55.51,33.65Z"/><path class="cls-3" d="M57.34,31.52h0a11.5,11.5,0,0,0,5.6-3.87,14.7,14.7,0,0,0,1.84-2.83.13.13,0,0,0-.23-.11,14.43,14.43,0,0,1-1.81,2.78,11.24,11.24,0,0,1-5.46,3.78.13.13,0,0,0,.07.25Z"/><path class="cls-3" d="M60.28,31.66a10.93,10.93,0,0,0,4.22-2.6.13.13,0,1,0-.18-.18,10.27,10.27,0,0,1-4.65,2.65.13.13,0,0,0,0,.25A5.65,5.65,0,0,0,60.28,31.66Z"/><path class="cls-3" d="M58.69,15a10.93,10.93,0,0,0,4.21-2.61.13.13,0,1,0-.18-.18,10.27,10.27,0,0,1-4.64,2.66.13.13,0,0,0,0,.25A5.66,5.66,0,0,0,58.69,15Z"/><polygon class="cls-9" points="78.38 55.17 79.29 57.18 77.43 57.98 76.36 55.9 78.38 55.17"/><path class="cls-5" d="M78.88,57.14s.19-.81.56-.94,4.14.87,5.18.64,1.16.55,1.14,1S78.06,61,78.06,61a12.71,12.71,0,0,1-1.23-2.92C76.78,57.32,78.2,57.63,78.88,57.14Z"/><path class="cls-10" d="M81.11,58a.15.15,0,0,1-.24-.13,2.26,2.26,0,0,1,.38-1,1,1,0,0,1,1-.37.15.15,0,1,1-.07.29.72.72,0,0,0-.68.27,2,2,0,0,0-.32.88A.15.15,0,0,1,81.11,58Z"/><path class="cls-10" d="M80.54,57.82a.15.15,0,0,1-.24-.13,2.26,2.26,0,0,1,.38-1,1,1,0,0,1,1-.37.15.15,0,1,1-.07.29.72.72,0,0,0-.68.27,2,2,0,0,0-.32.88A.15.15,0,0,1,80.54,57.82Z"/><path class="cls-10" d="M81.78,58.09a.15.15,0,0,1-.24-.13,2.26,2.26,0,0,1,.38-1,1,1,0,0,1,1-.37.15.15,0,1,1-.07.29.72.72,0,0,0-.68.27,2,2,0,0,0-.32.88A.15.15,0,0,1,81.78,58.09Z"/><path class="cls-11" d="M78.85,55.56a5.28,5.28,0,0,1-1.43.84l-.36.15-.61.23s-4.4-8.1-6.08-14c0,0-14.88-1.84-15.39-7a2.82,2.82,0,0,1,0-.54,3.82,3.82,0,0,1,.54-1.58c.34-.58,5.43,0,8.18.76,0,0,7.46,2.91,10.22,5.9C75.3,41.82,78.85,55.56,78.85,55.56Z"/><path class="cls-12" d="M77.42,56.4l-.36.15c-2.22-3.68-5.31-12.28-6-14.34a.41.41,0,0,0-.31-.27c-7.23-1.36-11.39-3.26-13.62-4.61A14.45,14.45,0,0,1,55,35.76a2.82,2.82,0,0,1,0-.54A13.21,13.21,0,0,0,57.38,37c2.19,1.33,6.3,3.19,13.44,4.53a.79.79,0,0,1,.61.53C72.12,44.16,75.22,52.79,77.42,56.4Z"/><path class="cls-13" d="M75.65,55.94l.7,1.12a6.08,6.08,0,0,0,2.93-1.5l-.44-1A31.57,31.57,0,0,1,75.65,55.94Z"/><path class="cls-9" d="M52,36.72s1,1.37.93,2.08-1,2-1.73,2.11.84-1.72.47-1.66-3.49,2.56-4.13,2.56.75-1.16,1.3-1.45a10.12,10.12,0,0,0-1.77,1c-.33.33-.58-.38,1.09-1.4,0,0-1.53.87-1.64.88-.34,0,.63-1.1,1.47-1.51,0,0-1.23.6-1.35.6s.2-.4,1.11-.9a10.9,10.9,0,0,0,2.17-2.54Z"/><path class="cls-3" d="M54.44,12.69a44.16,44.16,0,0,0-4.18,13.39l-.37,10.4s.35.74,2.09.25l1.68-10.4,1.29-4.76S55.52,15.72,54.44,12.69Z"/><circle class="cls-11" cx="61.19" cy="4.95" r="3.77" transform="translate(45.67 64.35) rotate(-79.98)"/><path class="cls-11" d="M65,4.93A1.25,1.25,0,0,0,66.1,3.78c0-.89-1.08-.51-.87-1.17S65.75,1.37,64.9,1s-.85.24-1.72-.7c-1-1.11-2.31.81-3.39.69a1.81,1.81,0,0,0-2.22,1.35,1.34,1.34,0,0,0,.24,1.29Z"/><path class="cls-16" d="M64.1,6.54s.73-.68,1,0-.63,2.53-1.62,1.87Z"/><path class="cls-17" d="M63.86,7.9a.09.09,0,0,0,.1-.05,1.42,1.42,0,0,1,.93-.69.09.09,0,0,0,0-.18,1.58,1.58,0,0,0-1.06.79.09.09,0,0,0,0,.12Z"/><path class="cls-17" d="M64.53,7.72h.05a.09.09,0,0,0,0-.12.84.84,0,0,0-.29-.33.09.09,0,1,0-.1.15.66.66,0,0,1,.22.25A.09.09,0,0,0,64.53,7.72Z"/><path class="cls-9" d="M59.2,9.36l-.34,1.9a3.1,3.1,0,0,0,1.39,1.18c.75.2,1.38-.63,1.38-.63L62,10Z"/><path class="cls-16" d="M59.2,9.36l-.15.84c.41.66,1.3,1,2.69,1L62,10Z"/><path class="cls-9" d="M58.06,4.12a18.81,18.81,0,0,0-.18,2.45c0,.19,0,.37,0,.53.15,1.47.73,4.05,3.71,3.55,1.32-.22,2.13-1.5,2.64-2.86a13.77,13.77,0,0,0,.65-2.57,2,2,0,0,0-.71-1.87,5.37,5.37,0,0,0-4.52-1A2,2,0,0,0,58.06,4.12Z"/><ellipse class="cls-11" cx="62.88" cy="6.58" rx="0.37" ry="0.24" transform="translate(45.46 67.35) rotate(-79.98)"/><ellipse class="cls-11" cx="60.14" cy="6.09" rx="0.37" ry="0.24" transform="translate(43.67 64.25) rotate(-79.98)"/><path class="cls-11" d="M63.84,5.58a2.66,2.66,0,0,0-1.71-.37v.36a3.21,3.21,0,0,1,1.59.4C63.79,5.82,63.87,5.76,63.84,5.58Z"/><path class="cls-11" d="M59.38,4.79A2.66,2.66,0,0,1,61.12,5L61,5.37a3.21,3.21,0,0,0-1.63-.17C59.35,5,59.29,4.95,59.38,4.79Z"/><path class="cls-16" d="M61.09,7.75a1,1,0,0,1-.31-.13.09.09,0,0,1,.1-.16c.08,0,.26.13.36.1a.1.1,0,0,0,.06-.08,13.88,13.88,0,0,0,.19-1.39.09.09,0,0,1,.18,0,13.6,13.6,0,0,1-.2,1.43.28.28,0,0,1-.17.2A.39.39,0,0,1,61.09,7.75Z"/><path class="cls-10" d="M62.13,8.51a1.18,1.18,0,0,1-1.33.85,1.14,1.14,0,0,1-1-1.26Z"/><path class="cls-16" d="M60.73,9.83a1,1,0,0,1-.42-.2.09.09,0,0,1,.12-.14.78.78,0,0,0,.33.16.75.75,0,0,0,.35,0,.09.09,0,0,1,.07.17A.92.92,0,0,1,60.73,9.83Z"/><path class="cls-11" d="M64.08,7.15a3.84,3.84,0,0,0,.28-1.08c0-.45-.33-.77-.13-1.17a.9.9,0,0,0-.48-1.06,5.29,5.29,0,0,1-1.8-.6c-.66-.47-2-.45-2.24,0s0,.63-.8,1.11c-.31.19-.1.87-.13,1.29a2.77,2.77,0,0,1-.07.48l0,.1-.8-.14c0-.65.09-1.35.17-1.94a2,2,0,0,1,1.61-1.72,5.37,5.37,0,0,1,4.52,1,2,2,0,0,1,.71,1.87,14.64,14.64,0,0,1-.45,2Z"/><path class="cls-9" d="M58.19,6.47a3.42,3.42,0,0,0,.06-.64.77.77,0,0,0-.31-.73.5.5,0,0,0-.69,0c-.55.57-.42,2.67.73,2.39Z"/><path class="cls-16" d="M57.88,6.92a.09.09,0,0,1-.06-.09,1.42,1.42,0,0,0-.43-1.08.09.09,0,0,1,.12-.14A1.58,1.58,0,0,1,58,6.84a.09.09,0,0,1-.1.08Z"/><path class="cls-16" d="M57.41,6.41l0,0a.09.09,0,0,1,0-.13.84.84,0,0,1,.42-.13.09.09,0,1,1,0,.18.66.66,0,0,0-.32.1A.09.09,0,0,1,57.41,6.41Z"/><path class="cls-9" d="M100.69,50A32.6,32.6,0,0,1,98,54.17a11.07,11.07,0,0,1-1.32,1.45c-.72.63-1.42,1-2,.69-2.11-1-6.83-9.35-6.83-9.35L89,45.6s2.1,2.37,3.63,3.79,2.5,2.29,2.5,2.29l.62-1,.71-1.13c1.77-2.84,3.89-5.95,3.89-5.95Z"/><path class="cls-9" d="M89.33,46.42a2.24,2.24,0,0,0,.29-1.49c-.18-.7-.36-2.29-1.13-2.25-.28,0,.13.68-.06,1.3a10.35,10.35,0,0,1-1.37-.8c-.48-.36-1.49-.94-2-1.21a.14.14,0,0,0-.2.19,3.26,3.26,0,0,0,1.09.93s-1.68-.94-2-.73,1.84,1.35,1.84,1.35S84.15,43,84,43.26s1.6,1.14,1.6,1.14-1.67-.52-1.36-.12c.09.11,3.26,1.55,3.92,3.22A3,3,0,0,0,89.33,46.42Z"/><path class="cls-16" d="M98,54.17a11.07,11.07,0,0,1-1.32,1.45l-.9-4.89.71-1.13Z"/><path class="cls-5" d="M100.44,43.43,96,49.88l1.42,5.74L100.9,50A14.37,14.37,0,0,0,100.44,43.43Z"/><polygon class="cls-9" points="102.74 98.56 102.74 100.6 104.64 100.57 104.76 98.41 102.74 98.56"/><path class="cls-11" d="M107.56,68.84c0,.24-.08,1.4-.18,3-.27,4.45-.77,12.35-1.06,14.12a97,97,0,0,0-.07,10.92,1.87,1.87,0,0,1-.54,1.37,2,2,0,0,1-.44.34,2,2,0,0,1-1,.25h-1.45a1.91,1.91,0,0,1-1.93-2c.08-2.64.18-7.46,0-11.19-.18-3.54.08-9.82.28-13.73h0c.08-1.56.15-2.74.18-3.23Z"/><path class="cls-12" d="M101.4,68.76l6.16.08c0,.24-.08,1.4-.18,3a26.54,26.54,0,0,1-6.16.13C101.3,70.43,101.37,69.25,101.4,68.76Z"/><path class="cls-12" d="M105.69,91.33c.05,2,.11,4.07.07,5.73,0,.47,0,.87,0,1.21a1.88,1.88,0,0,1-.44.34c0-.4.06-.91.08-1.56,0-1.66,0-3.72-.07-5.71a51.67,51.67,0,0,1,0-5.72c.3-2.14,1-13.77,1.13-16.88l.41,0c-.17,3.1-.84,14.75-1.13,16.91A52.11,52.11,0,0,0,105.69,91.33Z"/><path class="cls-5" d="M103.22,100.52s-.39-.54-.72-.53-2.85,1.9-3.7,2-.7.76-.55,1.08,6.79,0,6.79,0a9.92,9.92,0,0,0,0-2.52C104.86,100,103.89,100.68,103.22,100.52Z"/><path class="cls-10" d="M101.82,101.84a.12.12,0,0,0,.09,0,.12.12,0,0,0,0-.16,1.81,1.81,0,0,0-.61-.65.84.84,0,0,0-.84,0,.12.12,0,0,0,0,.16.12.12,0,0,0,.17,0,.6.6,0,0,1,.59,0,1.6,1.6,0,0,1,.51.55A.12.12,0,0,0,101.82,101.84Z"/><path class="cls-10" d="M102.18,101.52a.12.12,0,0,0,.09,0,.12.12,0,0,0,0-.16,1.81,1.81,0,0,0-.61-.65.83.83,0,0,0-.84,0,.12.12,0,0,0,0,.16.12.12,0,0,0,.17,0,.6.6,0,0,1,.59,0,1.59,1.59,0,0,1,.51.55A.12.12,0,0,0,102.18,101.52Z"/><path class="cls-10" d="M101.33,102.1a.12.12,0,0,0,.09,0,.12.12,0,0,0,0-.16,1.81,1.81,0,0,0-.61-.65.83.83,0,0,0-.84,0,.12.12,0,0,0,0,.16.12.12,0,0,0,.17,0,.6.6,0,0,1,.59,0,1.59,1.59,0,0,1,.51.55A.12.12,0,0,0,101.33,102.1Z"/><polygon class="cls-9" points="111.98 98.56 112.19 100.59 113.88 100.57 114.01 98.41 111.98 98.56"/><path class="cls-11" d="M115.47,85.72c-.19,3.72-.09,8.55,0,11.19a1.91,1.91,0,0,1-1.93,2h-1.45a2,2,0,0,1-.89-.21,1.92,1.92,0,0,1-1-1.74A97,97,0,0,0,110.09,86c-.3-1.81-.81-9.95-1.08-14.35l-.16-2.78,6.17.08c0,.31,0,.8.08,1.41C115.3,73.87,115.68,81.62,115.47,85.72Z"/><path class="cls-12" d="M115.1,70.35A61,61,0,0,1,109,71.64l-.16-2.78,6.17.08C115,69.25,115.06,69.74,115.1,70.35Z"/><path class="cls-12" d="M111.12,97.06c0,.67,0,1.19.08,1.59a1.9,1.9,0,0,1-.44-.31c0-.36,0-.78-.05-1.28,0-1.67,0-3.73.07-5.73a52.06,52.06,0,0,0,0-5.65c-.3-2.16-1-13.82-1.13-16.91l.41,0c.17,3.1.83,14.73,1.13,16.88a51.86,51.86,0,0,1,0,5.72C111.14,93.34,111.08,95.4,111.12,97.06Z"/><path class="cls-5" d="M112.85,100.28a8,8,0,0,1,1.1-.22c.24,0,1.84,1.76,2.38,1.86,1,.19,1,1.68.38,1.76a17.25,17.25,0,0,1-4.66-.5,13.39,13.39,0,0,1-.15-2.52C112,100.06,112.37,100.46,112.85,100.28Z"/><path class="cls-10" d="M114.27,101.92a.12.12,0,0,1-.09,0,.12.12,0,0,1,0-.16,1.82,1.82,0,0,1,.67-.59.83.83,0,0,1,.84.1.12.12,0,0,1,0,.16.12.12,0,0,1-.17,0,.6.6,0,0,0-.59-.06,1.61,1.61,0,0,0-.56.5A.12.12,0,0,1,114.27,101.92Z"/><path class="cls-10" d="M113.94,101.57a.12.12,0,0,1-.09,0,.12.12,0,0,1,0-.16,1.82,1.82,0,0,1,.67-.59.83.83,0,0,1,.84.1.12.12,0,0,1,0,.16.12.12,0,0,1-.17,0,.6.6,0,0,0-.59-.06,1.6,1.6,0,0,0-.56.5A.12.12,0,0,1,113.94,101.57Z"/><path class="cls-10" d="M114.73,102.22a.12.12,0,0,1-.09,0,.12.12,0,0,1,0-.16,1.82,1.82,0,0,1,.67-.59.83.83,0,0,1,.84.1.12.12,0,0,1,0,.16.12.12,0,0,1-.17,0,.6.6,0,0,0-.59-.06,1.6,1.6,0,0,0-.56.5A.12.12,0,0,1,114.73,102.22Z"/><path class="cls-5" d="M116.42,69.47a34.3,34.3,0,0,1-16.7,0c0-2-.06-10.18.1-16.86q0-.2,0-.39c0-.06,0-.13,0-.19h0c0-.08,0-.17,0-.25.12-4.41.33-8,.68-8.49h0c.83-1.12,5-2.9,6.16-3.7.1.15.66,1,1.41,1.06s1.54-.87,1.54-.87v-.18c1.16.8,4.94,2.45,5.77,3.56S116.46,66,116.42,69.47Z"/><path class="cls-3" d="M101.51,49.47A20.34,20.34,0,0,0,100,52.21l-.11.23-.06.12a.12.12,0,0,1,0,.05q0-.2,0-.39c0-.06,0-.13,0-.19h0l.23-.47a16.39,16.39,0,0,1,1.25-2.22.13.13,0,0,1,.18,0A.12.12,0,0,1,101.51,49.47Z"/><path class="cls-3" d="M112.19,44.55h0a9.07,9.07,0,0,1-5-1.72,8.69,8.69,0,0,1-1.75-1.62.12.12,0,0,1,0-.18.13.13,0,0,1,.18,0,9.17,9.17,0,0,0,6.52,3.24.13.13,0,1,1,0,.25Z"/><path class="cls-3" d="M104.73,65.22a.13.13,0,0,1,0-.25,9.41,9.41,0,0,0,7-3.51,9.71,9.71,0,0,0,1.71-3.18.13.13,0,0,1,.16-.09.13.13,0,0,1,.09.15,9.77,9.77,0,0,1-1.75,3.27,9.67,9.67,0,0,1-7.17,3.61Z"/><path class="cls-3" d="M106.68,63a.13.13,0,0,1-.12-.09.13.13,0,0,1,.09-.16,5.09,5.09,0,0,0,3.77-3.45.13.13,0,0,1,.15-.1.13.13,0,0,1,.1.15,4.47,4.47,0,0,1-.72,1.49A5.65,5.65,0,0,1,106.71,63Z"/><path class="cls-9" d="M120.51,69.24c-.08,1.11-.76,1.93-.76,2.66s-.86.25-.46-1.19-.19-2.83-.51-2.82.1,1.62-.23,2.16-.58-.59-.87-1.28a6.44,6.44,0,0,1,.14-3.27c.27-1.05-1.07-7.73-.89-9.61l-.48-2.44L116.16,52l-.05-1.49,2.58-1L119,51l.13.66c.35,1.78.66,3.53.78,4.66a66.35,66.35,0,0,1-.22,9.45A12.93,12.93,0,0,1,120.51,69.24Z"/><path class="cls-16" d="M119.11,51.66a5.73,5.73,0,0,1-2.67,1.78L116.16,52l-.05-1.49,2.58-1L119,51Z"/><path class="cls-5" d="M119.83,50.25A5.45,5.45,0,0,1,119,51a4.91,4.91,0,0,1-2.82,1,58.12,58.12,0,0,0-.66-8.62A30.12,30.12,0,0,1,119.83,50.25Z"/><path class="cls-3" d="M114.39,49.06a20.35,20.35,0,0,1,1.49,2.73L116,52l.06.12a.13.13,0,0,0,.12.08h0c0-.06,0-.13,0-.19h.11l-.12-.26-.3-.63a16.37,16.37,0,0,0-1.25-2.22.13.13,0,0,0-.18,0A.12.12,0,0,0,114.39,49.06Z"/><path class="cls-11" d="M112.05,33a3.5,3.5,0,0,1-3.68,3.77,3.74,3.74,0,0,1-3.87-3.88c0-2.23,1.35-3.92,3.63-3.92C110.87,28.93,112.05,30.73,112.05,33Z"/><path class="cls-16" d="M111.54,33.93s.63-.83,1.1-.14-.19,2.7-1.35,2.21Z"/><path class="cls-17" d="M111.55,35.37a.1.1,0,0,0,.09-.07,1.49,1.49,0,0,1,.84-.88.09.09,0,0,0,.06-.12.1.1,0,0,0-.13-.06,1.66,1.66,0,0,0-1,1,.1.1,0,0,0,.07.12Z"/><path class="cls-17" d="M112.21,35.05l.05,0a.09.09,0,0,0,0-.13.88.88,0,0,0-.37-.29.1.1,0,0,0-.13,0,.09.09,0,0,0,0,.13.7.7,0,0,1,.28.22A.1.1,0,0,0,112.21,35.05Z"/><path class="cls-16" d="M105,33.93s-.63-.83-1.1-.14.19,2.7,1.35,2.21Z"/><path class="cls-17" d="M105,35.37a.1.1,0,0,1-.09-.07,1.49,1.49,0,0,0-.84-.88.09.09,0,0,1-.06-.12.1.1,0,0,1,.13-.06,1.66,1.66,0,0,1,1,1,.1.1,0,0,1-.07.12Z"/><path class="cls-17" d="M104.35,35.05l-.05,0a.09.09,0,0,1,0-.13.88.88,0,0,1,.37-.29.1.1,0,0,1,.13,0,.09.09,0,0,1,0,.13.7.7,0,0,0-.28.22A.1.1,0,0,1,104.35,35.05Z"/><path class="cls-9" d="M106.72,37.7v2s.61,1,1.44,1.09,1.56-.88,1.56-.88V37.85Z"/><path class="cls-16" d="M106.72,37.7v.89c.55.6,1.54.75,3,.54V37.85Z"/><path class="cls-9" d="M111.88,33.86a11.83,11.83,0,0,1-.17,1.32c-.27,1.48-.89,2.94-2.23,3.4-3,1.06-4.1-1.48-4.53-3,0-.16-.09-.35-.13-.54-.07-.35-.12-.75-.16-1.14s-.08-1-.1-1.39a2.09,2.09,0,0,1,1.37-2.05,5.8,5.8,0,0,1,4.9.16,2.09,2.09,0,0,1,1.09,1.78C111.92,32.84,111.92,33.33,111.88,33.86Z"/><path class="cls-11" d="M111.51,33.94c-.1.18-.67,1.89-.82,2.13-.36-.77-2.08-.21-2.08-.21a1.09,1.09,0,0,1-.66,0h0s-1.74-.54-2.09.27c-.16-.24-.65-1.92-.74-2.19h-.44c0,.4.09.79.16,1.14,0,.2.08.38.13.54.43,1.48,1.51,4,4.53,3,1.33-.47,2-1.92,2.23-3.4a11.83,11.83,0,0,0,.17-1.32Zm-1.62,3.13h0a1.92,1.92,0,0,1-.41.3c-.77.41-.85.34-1.15.36a2.31,2.31,0,0,1-1.16-.31,3.29,3.29,0,0,1-.55-.41s-.31-1,1.66-.78C110.25,35.9,109.91,36.87,109.88,37.07Z"/><ellipse class="cls-11" cx="109.83" cy="34.19" rx="0.25" ry="0.39"/><ellipse class="cls-11" cx="106.86" cy="34.18" rx="0.25" ry="0.39"/><path class="cls-11" d="M110.83,33.09a2.65,2.65,0,0,0-1.71-.06l.07.4a4.86,4.86,0,0,1,1.64.13A.69.69,0,0,0,110.83,33.09Z"/><path class="cls-11" d="M106,33.09a2.65,2.65,0,0,1,1.71-.06l-.07.4a4.85,4.85,0,0,0-1.64.13A.69.69,0,0,1,106,33.09Z"/><path class="cls-16" d="M108.25,35.69a1.06,1.06,0,0,1-.35-.07.09.09,0,0,1-.05-.12.1.1,0,0,1,.13-.05.6.6,0,0,0,.39,0,.1.1,0,0,0,0-.09,14.15,14.15,0,0,0-.06-1.46.1.1,0,0,1,.19,0,13.85,13.85,0,0,1,.06,1.5.29.29,0,0,1-.14.23A.42.42,0,0,1,108.25,35.69Z"/><path class="cls-10" d="M109.58,36.39a1.24,1.24,0,0,1-1.23,1.11,1.2,1.2,0,0,1-1.23-1.11Z"/><path class="cls-11" d="M104.67,33.94h.44c0-.43-.12-1.2.25-1.31,1.15-.35-.34-1.14.18-1.54s1.81-.23,2.71-.26a19.67,19.67,0,0,1,2.71.06c.35.08.16.65,0,1.1s.43.94.53,1.4a2,2,0,0,1,0,.54h.37c0-.56.05-1.08,0-1.51a2.09,2.09,0,0,0-1.09-1.78,5.8,5.8,0,0,0-4.9-.15,2.09,2.09,0,0,0-1.37,2C104.58,33,104.62,33.46,104.67,33.94Z"/><path class="cls-10" d="M40,82.8H17.58a4.42,4.42,0,0,1,4.23-3.87l7,0,7,0A4.42,4.42,0,0,1,40,82.8Z"/><rect class="cls-10" x="19.34" y="82.48" width="1.22" height="20.88"/><rect class="cls-10" x="36.99" y="82.48" width="1.22" height="20.88"/><rect class="cls-2" x="20.56" y="88.33" width="16.43" height="1.18"/><path class="cls-3" d="M23.29,54.69s-3.74,5-4.24,9.34c-.35,3.07,4.24,7.66,4.24,7.66l1.58-.79L23.3,67.36c-.56-1.73-1.25-2.41-.74-4.16l1.14-2.46Z"/><path class="cls-3" d="M35.08,54.62s3.69,5.32,4,9.69c.26,3.77-4.26,7.39-4.26,7.39L33.51,71l1.81-3.59c.56-1.73.83-2.77.06-4.66l-1-2.07Z"/><path class="cls-5" d="M24.05,66.05l-2.48,7.89s10.73,1.37,14,.48l-1.67-8.59,1.15-11.22a16,16,0,0,0-5-1.24,13,13,0,0,0-6.74,1.31Z"/><path class="cls-3" d="M26.74,57.07a11.19,11.19,0,0,0,4.67-2,.13.13,0,0,0-.16-.21,10.52,10.52,0,0,1-5.11,2,.13.13,0,0,0,0,.26A5.78,5.78,0,0,0,26.74,57.07Z"/><polygon class="cls-9" points="28.64 99.33 28.84 101.07 30.69 101.11 30.84 99.67 28.64 99.33"/><path class="cls-12" d="M28.35,71.72s-4.8-.26-6.42,1.07-1.3,5.14.36,6.18,4.48,3.09,4.48,3.09L28.56,99.9l2.37.08S33.12,82.06,32,78.58A27.37,27.37,0,0,0,28.35,71.72Z"/><path class="cls-11" d="M31.15,99.09a2,2,0,0,1-.06,1.22l-2.73-.06a3.14,3.14,0,0,1-.05-1.2Z"/><path class="cls-10" d="M35.14,71.58H22.55l-1.16-6.8a1,1,0,0,1,1-1.13h13a1,1,0,0,1,1,1.13Z"/><path class="cls-2" d="M34.13,73.06H23.58a1,1,0,0,1-1-1v-.45h12.6V72A1,1,0,0,1,34.13,73.06Z"/><circle class="cls-2" cx="28.88" cy="67.9" r="1.09"/><polygon class="cls-9" points="20.78 94.43 20.37 96.15 22.03 96.48 22.71 94.94 20.78 94.43"/><path class="cls-11" d="M30.79,71.42s-3.21-1.11-5.1,1.22-5,22-5,22l2.16.89,6.95-17.44s5.66,3.23,6.34-1.36C36.66,73.06,30.79,71.42,30.79,71.42Z"/><path class="cls-13" d="M23.31,94.59a2,2,0,0,1-.45,1.18l-2.66-.94a3.24,3.24,0,0,1,.33-1.19Z"/><path class="cls-5" d="M21.63,95.87a10.11,10.11,0,0,0-1.3-.57C20,95.24,17.59,97,16.89,97c-1.26,0-1.66,1.82-.95,2.07a21.82,21.82,0,0,0,5.9.64,16.94,16.94,0,0,0,.87-3.07C22.72,95.82,22.18,96.22,21.63,95.87Z"/><path class="cls-10" d="M19.43,97.51a.15.15,0,0,0,.12,0,.15.15,0,0,0,.08-.19,2.3,2.3,0,0,0-.67-.9,1.06,1.06,0,0,0-1.06-.1.15.15,0,0,0-.06.2.15.15,0,0,0,.2.06.75.75,0,0,1,.75.08,2,2,0,0,1,.56.77A.15.15,0,0,0,19.43,97.51Z"/><path class="cls-10" d="M19.94,97.16a.15.15,0,0,0,.12,0,.15.15,0,0,0,.08-.19,2.3,2.3,0,0,0-.67-.9,1.05,1.05,0,0,0-1.06-.1.15.15,0,0,0-.06.2.15.15,0,0,0,.2.06.75.75,0,0,1,.75.08,2,2,0,0,1,.56.77A.15.15,0,0,0,19.94,97.16Z"/><path class="cls-10" d="M18.79,97.76a.15.15,0,0,0,.12,0,.15.15,0,0,0,.08-.19,2.3,2.3,0,0,0-.67-.9,1.05,1.05,0,0,0-1.06-.1.15.15,0,0,0-.06.2.15.15,0,0,0,.2.06.75.75,0,0,1,.75.08,2,2,0,0,1,.56.77A.15.15,0,0,0,18.79,97.76Z"/><path class="cls-5" d="M29.55,101a9.64,9.64,0,0,1,1.32-.32c.29,0,2.3,2,3,2.13,1.19.18,1.26,2,.55,2.1a20.81,20.81,0,0,1-5.64-.38,16.15,16.15,0,0,1-.3-3C28.54,100.77,29,101.23,29.55,101Z"/><path class="cls-10" d="M31.35,102.9a.15.15,0,0,1-.11,0,.14.14,0,0,1,0-.19A2.19,2.19,0,0,1,32,102a1,1,0,0,1,1,.08.14.14,0,0,1,0,.2.15.15,0,0,1-.2,0,.72.72,0,0,0-.72,0,1.94,1.94,0,0,0-.65.63A.14.14,0,0,1,31.35,102.9Z"/><path class="cls-10" d="M30.93,102.49a.15.15,0,0,1-.11,0,.14.14,0,0,1,0-.19,2.19,2.19,0,0,1,.78-.74,1,1,0,0,1,1,.08.14.14,0,0,1,0,.2.15.15,0,0,1-.2,0,.72.72,0,0,0-.72,0,1.93,1.93,0,0,0-.65.63A.14.14,0,0,1,30.93,102.49Z"/><path class="cls-10" d="M31.91,103.24a.15.15,0,0,1-.11,0,.14.14,0,0,1,0-.19,2.2,2.2,0,0,1,.78-.74,1,1,0,0,1,1,.08.14.14,0,0,1,0,.2.15.15,0,0,1-.2,0,.72.72,0,0,0-.72,0,1.93,1.93,0,0,0-.65.63A.14.14,0,0,1,31.91,103.24Z"/><path class="cls-11" d="M32.35,43.44a9.09,9.09,0,0,1,1.36,4.83c-.17,2.46.22,5.31-2,5.18s-6.13.88-7.38-1S32.35,43.44,32.35,43.44Z"/><path class="cls-18" d="M32.92,47.79s.4,3.57-1.3,4.55a2.5,2.5,0,0,1-2.92-.11S32.27,47.25,32.92,47.79Z"/><path class="cls-16" d="M25.88,47.77s-.61-.81-1.06-.14.19,2.65,1.29,2.17Z"/><path class="cls-17" d="M25.87,49.19a.09.09,0,0,1-.09-.07,1.45,1.45,0,0,0-.81-.86.09.09,0,0,1,.07-.18,1.61,1.61,0,0,1,.93,1,.09.09,0,0,1-.06.12Z"/><path class="cls-17" d="M25.23,48.88h-.05a.09.09,0,0,1,0-.13.85.85,0,0,1,.35-.28.09.09,0,0,1,.08.17.68.68,0,0,0-.27.21A.09.09,0,0,1,25.23,48.88Z"/><path class="cls-16" d="M32.15,47.77s.61-.81,1.06-.14S33,50.29,31.92,49.8Z"/><path class="cls-17" d="M32.16,49.19a.09.09,0,0,0,.09-.07,1.45,1.45,0,0,1,.81-.86.09.09,0,0,0-.07-.18,1.61,1.61,0,0,0-.93,1,.09.09,0,0,0,.06.12Z"/><path class="cls-17" d="M32.8,48.88h.05a.09.09,0,0,0,0-.13.85.85,0,0,0-.35-.28.09.09,0,0,0-.08.17.68.68,0,0,1,.27.21A.09.09,0,0,0,32.8,48.88Z"/><path class="cls-9" d="M30.51,51.48v2s-.59,1-1.38,1.07-1.5-.86-1.5-.86v-2Z"/><path class="cls-16" d="M30.51,51.48v.87c-.53.59-1.48.8-2.88.59V51.62Z"/><path class="cls-9" d="M32.59,46.42a19.17,19.17,0,0,1-.26,2.49c0,.19-.08.37-.12.53-.41,1.45-1.45,3.94-4.35,2.9C26.57,51.89,26,50.46,25.72,49a14,14,0,0,1-.19-2.69,2.06,2.06,0,0,1,1-1.75,5.47,5.47,0,0,1,4.71-.15A2,2,0,0,1,32.59,46.42Z"/><ellipse class="cls-11" cx="27.5" cy="48.08" rx="0.24" ry="0.38"/><ellipse class="cls-11" cx="30.48" cy="48.08" rx="0.24" ry="0.38"/><path class="cls-11" d="M27,46.81a4,4,0,0,1,1-.16.18.18,0,0,1,.18.21h0A.18.18,0,0,1,28,47a4.54,4.54,0,0,0-1.42.17.27.27,0,0,1,.08-.19A.62.62,0,0,1,27,46.81Z"/><path class="cls-11" d="M30.93,46.82a4,4,0,0,0-1-.16.18.18,0,0,0-.18.21h0a.18.18,0,0,0,.19.15,4.54,4.54,0,0,1,1.42.17.27.27,0,0,0-.08-.19A.62.62,0,0,0,30.93,46.82Z"/><path class="cls-16" d="M29,49.63a.39.39,0,0,1-.2,0,.29.29,0,0,1-.14-.23,13.87,13.87,0,0,1,.06-1.47.09.09,0,0,1,.19,0,14.15,14.15,0,0,0-.06,1.43.1.1,0,0,0,0,.09.56.56,0,0,0,.38,0,.09.09,0,0,1,.07.17A1,1,0,0,1,29,49.63Z"/><path class="cls-10" d="M27.86,50.22a1.11,1.11,0,0,0,1.1,1,1.07,1.07,0,0,0,1.09-1Z"/><path class="cls-16" d="M28.95,51.77a.94.94,0,0,1-.44-.13.09.09,0,0,1,.1-.16h0a.75.75,0,0,0,.34.1.8.8,0,0,0,.36-.1.09.09,0,0,1,.1.16A1,1,0,0,1,28.95,51.77Z"/><path class="cls-11" d="M33,46.27a.31.31,0,0,1-.23.17,6,6,0,0,1,0,.69c-.12,1.35-.46,1.59-.53,1.26a15.62,15.62,0,0,1,0-1.91,4.41,4.41,0,0,1-.5-.06l-.31-1.31-.11,1.3a4.1,4.1,0,0,1-1.57-.1L29.29,45l-.23,1.25a2.62,2.62,0,0,1-1.59.11L27.28,45l-.47,1.34s-1.51.54-1.52,0a10.12,10.12,0,0,1,.41-1.89,2.84,2.84,0,0,1,1.37-1.74,5,5,0,0,1,4.52-.06C33,43.54,33,46.27,33,46.27Z"/><path class="cls-11" d="M26.12,43.54a8.92,8.92,0,0,0-1.65,4.11c-.41,2.63-1,4.58.61,5.45s1.57-1,1.54-1.51a8,8,0,0,1-.51-6A3.51,3.51,0,0,0,26.12,43.54Z"/><path class="cls-18" d="M25.83,49h0s0,.12,0,.29,0,.23,0,.37a6,6,0,0,0,.74,3,1.69,1.69,0,0,0,1,.36v-.7a2.76,2.76,0,0,1-1.14-1.06,6.52,6.52,0,0,1-.63-1.95Z"/><circle class="cls-10" cx="32.39" cy="49.85" r="0.22"/><rect class="cls-6" x="92.54" y="24.09" width="6.87" height="6.87" rx="0.75" ry="0.75"/><path class="cls-8" d="M98.32,27.53A2.34,2.34,0,1,1,96,25.19,2.33,2.33,0,0,1,98.32,27.53Z"/><path class="cls-10" d="M97.78,29a2.34,2.34,0,0,1-3.61,0l0-.06a.83.83,0,0,1,.49-.42,1.45,1.45,0,0,0,.93-.57,1,1,0,0,1-.47-.5c-.26.06-.46-.43-.31-.56a.21.21,0,0,1,.16-.06,1,1,0,0,1,1.94,0,.21.21,0,0,1,.16.06c.14.13,0,.62-.31.56a.89.89,0,0,1-.44.47,1.41,1.41,0,0,0,.9.61.82.82,0,0,1,.49.42Z"/><rect class="cls-6" x="3.25" y="60.64" width="6.87" height="6.87" rx="0.75" ry="0.75"/><path class="cls-10" d="M6.79,61.8a1.5,1.5,0,0,0-1.4,2.27c.2.34.4.67.59,1l.71,1.28,1.09-2,.2-.34a1.49,1.49,0,0,0,.21-.8A1.51,1.51,0,0,0,6.79,61.8Zm-.1,2a.64.64,0,1,1,.64-.64A.64.64,0,0,1,6.69,63.75Z"/><path class="cls-5" d="M122.29,33.23a1.53,1.53,0,1,1-1.53,1.53A1.54,1.54,0,0,1,122.29,33.23Zm0,2.59a1.05,1.05,0,1,0-1.05-1.05A1.05,1.05,0,0,0,122.29,35.82Z"/><path class="cls-6" d="M116.77,27.85a1.53,1.53,0,1,1-1.53,1.53A1.54,1.54,0,0,1,116.77,27.85Zm0,2.59a1.05,1.05,0,1,0-1.05-1.05A1.05,1.05,0,0,0,116.77,30.44Z"/><path class="cls-5" d="M114.87,22.86a.24.24,0,0,1,.24.24v1.06a.24.24,0,1,1-.48,0V23.1A.24.24,0,0,1,114.87,22.86Z"/><path class="cls-5" d="M114.87,21a.24.24,0,0,1,.24.24v1.06a.24.24,0,0,1-.48,0V21.25A.24.24,0,0,1,114.87,21Z"/><path class="cls-5" d="M113.39,22.47h1a.24.24,0,0,1,0,.48h-1a.24.24,0,0,1,0-.48Z"/><path class="cls-5" d="M115.41,22.47h1a.24.24,0,1,1,0,.48h-1a.24.24,0,1,1,0-.48Z"/><path class="cls-6" d="M123.35,28.81a.24.24,0,0,1,.24.24v1.06a.24.24,0,1,1-.48,0V29.05A.24.24,0,0,1,123.35,28.81Z"/><path class="cls-6" d="M123.35,27a.24.24,0,0,1,.24.24v1.06a.24.24,0,1,1-.48,0V27.19A.24.24,0,0,1,123.35,27Z"/><path class="cls-6" d="M121.86,28.41h1a.24.24,0,1,1,0,.48h-1a.24.24,0,0,1,0-.48Z"/><path class="cls-6" d="M123.88,28.41h1a.24.24,0,0,1,0,.48h-1a.24.24,0,0,1,0-.48Z"/><path class="cls-5" d="M27.29,13.64a1.53,1.53,0,1,1-1.53,1.53A1.54,1.54,0,0,1,27.29,13.64Zm0,.48a1.05,1.05,0,1,0,1.05,1.05A1.05,1.05,0,0,0,27.29,14.12Z"/><path class="cls-6" d="M21.7,8.57a1.53,1.53,0,1,1-1.53,1.53A1.54,1.54,0,0,1,21.7,8.57Zm0,.48a1.05,1.05,0,1,0,1.05,1.05A1.05,1.05,0,0,0,21.7,9.06Z"/><path class="cls-5" d="M19.68,17.34a.24.24,0,0,0,.24.24H21a.24.24,0,0,0,0-.48H19.92A.24.24,0,0,0,19.68,17.34Z"/><path class="cls-5" d="M17.82,17.34a.24.24,0,0,0,.24.24h1.06a.24.24,0,0,0,0-.48H18.06A.24.24,0,0,0,17.82,17.34Z"/><path class="cls-5" d="M19.28,15.85v1a.24.24,0,1,0,.48,0v-1a.24.24,0,0,0-.48,0Z"/><path class="cls-5" d="M19.28,17.88v1a.24.24,0,1,0,.48,0v-1a.24.24,0,0,0-.48,0Z"/><path class="cls-6" d="M30.92,9.06a.24.24,0,0,0,.24.24h1.06a.24.24,0,0,0,0-.48H31.16A.24.24,0,0,0,30.92,9.06Z"/><path class="cls-6" d="M29.06,9.06a.24.24,0,0,0,.24.24h1.06a.24.24,0,0,0,0-.48H29.3A.24.24,0,0,0,29.06,9.06Z"/><path class="cls-6" d="M30.52,7.57v1a.24.24,0,1,0,.48,0v-1a.24.24,0,1,0-.48,0Z"/><path class="cls-6" d="M30.52,9.59v1a.24.24,0,0,0,.48,0v-1a.24.24,0,1,0-.48,0Z"/><path class="cls-2" d="M94.88,16.46H95l.58-.13a.19.19,0,0,0,.16-.22.2.2,0,0,0-.24-.15s-.23,0-.61.13a.19.19,0,0,0-.14.23A.2.2,0,0,0,94.88,16.46Z"/><path class="cls-2" d="M83.09,25.19c-.19.32-.37.66-.54,1a.21.21,0,0,1-.23.1h0a.19.19,0,0,1-.1-.25c.17-.35.36-.69.55-1a.21.21,0,0,1,.28-.08A.18.18,0,0,1,83.09,25.19Z"/><path class="cls-2" d="M82.08,27.22c-.15.34-.29.7-.41,1.05a.21.21,0,0,1-.24.12h0a.19.19,0,0,1-.13-.24c.13-.36.27-.72.42-1.07A.21.21,0,0,1,82,27,.19.19,0,0,1,82.08,27.22Z"/><path class="cls-2" d="M80.35,32.8a.19.19,0,0,1-.15-.21c.05-.38.11-.76.18-1.13a.2.2,0,0,1,.23-.15.19.19,0,0,1,.16.22c-.07.36-.13.74-.18,1.11a.2.2,0,0,1-.23.16Z"/><path class="cls-2" d="M81.17,29.1a.19.19,0,0,1,.14.23l-.14.5c-.05.19-.1.39-.15.58a.2.2,0,0,1-.24.14h0a.19.19,0,0,1-.15-.23c0-.2.1-.4.15-.59l.15-.51a.2.2,0,0,1,.25-.13Z"/><path class="cls-2" d="M83.7,24.23a.21.21,0,0,1-.22.08l-.06,0a.18.18,0,0,1-.06-.26c.22-.32.45-.64.68-.95a.21.21,0,0,1,.28,0,.18.18,0,0,1,0,.27C84.14,23.6,83.91,23.92,83.7,24.23Z"/><path class="cls-2" d="M93.85,16.79c-.37.12-.75.25-1.12.4a.21.21,0,0,1-.13,0,.2.2,0,0,1-.14-.11.19.19,0,0,1,.11-.25c.38-.15.76-.28,1.14-.4a.21.21,0,0,1,.26.12A.19.19,0,0,1,93.85,16.79Z"/><path class="cls-2" d="M90.58,18.16a.21.21,0,0,1-.15,0,.2.2,0,0,1-.13-.09.18.18,0,0,1,.08-.26c.35-.18.72-.36,1.08-.53a.21.21,0,0,1,.27.09.19.19,0,0,1-.09.25C91.28,17.8,90.93,18,90.58,18.16Z"/><path class="cls-2" d="M86.73,20.79a.21.21,0,0,1-.19,0,.2.2,0,0,1-.1-.05.18.18,0,0,1,0-.27c.29-.26.6-.51.91-.76a.21.21,0,0,1,.29,0,.18.18,0,0,1,0,.27C87.32,20.29,87,20.54,86.73,20.79Z"/><path class="cls-2" d="M88.57,19.36a.21.21,0,0,1-.17,0,.2.2,0,0,1-.11-.07.18.18,0,0,1,0-.27c.33-.22.66-.44,1-.64a.21.21,0,0,1,.28.06.18.18,0,0,1-.06.26C89.22,18.93,88.89,19.15,88.57,19.36Z"/><path class="cls-2" d="M85.1,22.42a.21.21,0,0,1-.21.06l-.08,0a.18.18,0,0,1,0-.27c.26-.29.53-.58.81-.86a.21.21,0,0,1,.29,0,.18.18,0,0,1,0,.27C85.61,21.85,85.35,22.13,85.1,22.42Z"/><polygon class="cls-5" points="95.09 15.17 94.68 12 105.44 13.54 95.09 15.17"/><polygon class="cls-3" points="105.44 13.54 95.5 15.98 95.47 15.99 94.97 16.56 95.09 15.17 105.44 13.54"/><polygon class="cls-4" points="94.97 16.56 95.86 16.55 95.47 15.99 94.97 16.56"/><polygon class="cls-5" points="96.72 15.68 95.47 15.99 97.5 18.88 105.44 13.54 96.72 15.68"/></g></g></g></svg>